<svg width="1668" height="303" viewBox="0 0 1668 303" fill="none" xmlns="http://www.w3.org/2000/svg">
<path d="M195.726 178.166C195.726 226.255 158.112 251.617 101.192 251.617C40.9427 251.617 2.33007 225.267 0 171.249C0 169.932 1.33147 168.614 2.66294 168.614H39.9441C41.2756 168.614 42.607 169.932 42.9399 171.249C45.6028 200.893 60.249 219.668 102.19 219.668C134.478 219.668 155.116 209.457 155.116 183.766C155.116 126.784 4.66014 170.261 4.66014 80.0122C4.66014 37.5226 38.6126 11.8313 94.2014 11.8313C148.126 11.8313 183.41 33.5701 189.402 81.9884C189.734 83.306 188.403 84.6235 187.071 84.6235H149.79C148.459 84.6235 147.127 83.6353 146.794 81.9884C144.132 57.2852 126.157 44.1101 92.87 44.1101C64.5763 44.1101 44.9371 53.9915 44.9371 76.0597C44.9371 129.748 195.726 87.5879 195.726 178.166Z" fill="#FE79A7"/>
<path d="M322.665 222.303C311.348 238.113 292.042 250.959 266.411 250.959C230.461 250.959 207.826 227.243 207.826 184.425V149.511L207.161 80.0122C207.161 78.6947 208.492 77.3772 209.823 77.3772H245.107C246.439 77.3772 247.77 78.6947 247.77 80.0122L247.105 149.511V183.436C247.105 207.481 260.086 219.997 278.061 219.997C298.366 219.997 317.007 203.199 320.335 167.956V149.511L320.003 80.0122C320.003 78.6947 321.334 77.3772 322.665 77.3772H358.282C359.614 77.3772 360.945 78.6947 360.945 80.0122L360.279 157.086L360.612 244.371C360.612 245.689 359.281 247.006 357.949 247.006H324.33C322.998 247.006 321.667 245.689 321.667 244.371L322.665 222.303Z" fill="#FE79A7"/>
<path d="M417.764 160.709C417.431 199.905 432.743 221.973 459.705 221.973C488.998 221.973 503.311 200.235 503.311 164.003C503.311 125.466 488.998 102.739 460.704 102.739C433.742 102.739 418.097 122.502 417.764 160.709ZM543.921 161.698C543.921 210.775 516.626 250.3 470.69 250.3C448.388 250.3 431.079 242.065 419.428 226.255L420.094 300.365C420.094 301.682 418.763 303 417.431 303H381.814C380.483 303 379.151 301.682 379.151 300.365L380.15 175.861L379.151 80.0122C379.151 78.6947 380.483 77.3772 381.814 77.3772H417.098C418.43 77.3772 419.761 78.6947 419.761 80.0122L418.763 100.434C430.746 83.9647 448.388 74.0834 471.356 74.0834C518.956 74.0834 543.921 112.291 543.921 161.698Z" fill="#FE79A7"/>
<path d="M681.439 189.036H714.726C716.057 189.036 717.389 190.353 717.056 191.671C712.396 224.279 684.102 250.959 638.166 250.959C582.91 250.959 553.285 214.398 553.285 162.686C553.285 108.997 584.908 73.4247 636.835 73.4247C690.094 73.4247 720.052 108.997 721.05 166.968C721.05 168.285 719.719 169.603 718.388 169.603H593.229C594.894 205.834 609.873 222.962 638.832 222.962C659.803 222.962 673.45 212.751 678.111 191.671C678.443 190.024 680.108 189.036 681.439 189.036ZM677.778 142.923C676.113 120.855 663.464 101.092 637.168 101.092C613.201 101.092 598.888 115.585 594.561 142.923H677.778Z" fill="#FE79A7"/>
<path d="M772.062 247.006H737.111C735.78 247.006 734.448 245.689 734.448 244.371L735.447 161.368L734.448 80.0122C734.448 78.6947 735.78 77.3772 737.111 77.3772H771.729C773.061 77.3772 774.392 78.6947 774.392 80.0122L773.394 107.021C786.043 86.5997 808.678 76.0597 832.977 76.0597C836.306 76.0597 839.302 76.3891 841.965 76.7184C843.296 77.0478 844.627 78.6947 844.627 80.0122V105.704C844.627 107.021 843.296 108.009 841.965 108.009C839.634 107.68 836.639 107.68 833.976 107.68C801.688 107.68 775.724 126.125 774.392 164.662L774.725 244.371C774.725 245.689 773.394 247.006 772.062 247.006Z" fill="#FE79A7"/>
<path d="M893.993 247.006H859.375C858.043 247.006 856.712 245.689 856.712 244.371L858.043 131.066L856.712 19.0776C856.712 17.76 858.043 16.4425 859.375 16.4425H893.993C895.325 16.4425 896.656 17.76 896.656 19.0776L895.658 131.066L896.656 244.371C896.656 245.689 895.325 247.006 893.993 247.006Z" fill="#FE79A7"/>
<path d="M952.443 160.051C952.443 199.576 967.089 222.303 995.05 222.303C1022.01 222.303 1037.66 202.54 1037.99 163.344C1038.32 124.149 1023.01 102.41 996.048 102.08C966.756 101.751 952.443 123.819 952.443 160.051ZM1073.94 247.006H1038.99C1037.66 247.006 1036.33 245.689 1036.33 244.371L1036.99 223.62C1025.34 240.418 1007.37 250.3 984.398 250.3C936.798 250.3 911.833 212.092 911.833 162.686C911.833 113.609 939.128 74.0834 985.064 74.0834C1007.7 74.0834 1025.34 82.6472 1036.99 99.116L1035.99 80.0122C1035.99 78.6947 1037.32 77.3772 1038.66 77.3772H1073.94C1075.27 77.3772 1076.6 78.6947 1076.6 80.0122L1075.6 161.698L1076.6 244.371C1076.6 245.689 1075.27 247.006 1073.94 247.006Z" fill="#FE79A7"/>
<path d="M1191.82 219.338V241.736C1191.82 243.383 1190.82 244.7 1189.16 245.03C1180.83 247.665 1170.85 249.97 1161.53 249.97C1134.57 249.97 1110.27 236.466 1110.27 198.588L1110.6 107.021H1090.96C1089.63 107.021 1088.3 105.704 1088.3 104.386V80.0122C1088.3 78.6947 1089.63 77.3772 1090.96 77.3772H1110.6L1110.27 37.5226C1110.27 36.2051 1111.6 34.8876 1112.93 34.8876H1147.88C1149.21 34.8876 1150.54 36.2051 1150.54 37.5226L1150.21 77.3772H1189.16C1190.49 77.3772 1191.82 78.6947 1191.82 80.0122V104.386C1191.82 105.704 1190.49 107.021 1189.16 107.021H1150.21V197.6C1150.21 214.727 1157.53 219.997 1170.18 219.997C1177.84 219.997 1184.16 218.68 1189.16 217.362C1190.49 217.033 1191.82 218.021 1191.82 219.338Z" fill="#FE79A7"/>
<path d="M1243.12 59.9202H1207.84C1206.51 59.9202 1205.17 58.6027 1205.17 57.2852V23.3594C1205.17 22.0419 1206.51 20.7244 1207.84 20.7244H1243.12C1244.45 20.7244 1245.78 22.0419 1245.78 23.3594V57.2852C1245.78 58.6027 1244.45 59.9202 1243.12 59.9202ZM1243.45 247.006H1207.84C1206.51 247.006 1205.17 245.689 1205.17 244.371L1205.84 161.039L1205.17 80.0122C1205.17 78.6947 1206.51 77.3772 1207.84 77.3772H1243.45C1244.79 77.3772 1246.12 78.6947 1246.12 80.0122L1245.12 161.039L1246.12 244.371C1246.12 245.689 1244.79 247.006 1243.45 247.006Z" fill="#FE79A7"/>
<path d="M1422.73 80.0122L1363.14 244.7C1362.48 246.347 1361.15 247.335 1359.48 247.335H1317.21C1315.54 247.335 1314.21 246.347 1313.55 244.7L1253.96 80.0122C1253.3 78.6947 1254.3 77.3772 1255.63 77.3772H1293.57C1295.24 77.3772 1296.57 78.3653 1296.9 80.0122L1339.51 213.41L1384.78 80.0122C1385.45 78.3653 1386.78 77.3772 1388.44 77.3772H1421.06C1422.39 77.3772 1423.39 78.6947 1422.73 80.0122Z" fill="#FE79A7"/>
<path d="M1543.84 189.036H1577.13C1578.46 189.036 1579.79 190.353 1579.46 191.671C1574.8 224.279 1546.5 250.959 1500.57 250.959C1445.31 250.959 1415.68 214.398 1415.68 162.686C1415.68 108.997 1447.31 73.4247 1499.23 73.4247C1552.49 73.4247 1582.45 108.997 1583.45 166.968C1583.45 168.285 1582.12 169.603 1580.79 169.603H1455.63C1457.29 205.834 1472.27 222.962 1501.23 222.962C1522.2 222.962 1535.85 212.751 1540.51 191.671C1540.84 190.024 1542.51 189.036 1543.84 189.036ZM1540.18 142.923C1538.51 120.855 1525.86 101.092 1499.57 101.092C1475.6 101.092 1461.29 115.585 1456.96 142.923H1540.18Z" fill="#FE79A7"/>
<path d="M1620.13 0H1637.77C1639.1 0 1640.1 1.31751 1639.77 2.63502L1630.45 36.8902V74.7684C1630.45 76.086 1629.12 77.4035 1627.79 77.4035H1593.83C1592.5 77.4035 1591.17 76.086 1591.17 74.7684V39.8545C1591.17 38.2077 1591.84 36.2314 1592.83 34.9139L1615.8 2.30565C1616.8 0.988138 1618.46 0 1620.13 0Z" fill="#FE79A7"/>
<path d="M1621.07 112.963H1639.04C1640.7 112.963 1642.37 111.975 1643.37 110.657L1666.34 78.0492C1667.33 76.7317 1668 74.7555 1668 73.1086V38.1947C1668 36.8772 1666.67 35.5597 1665.34 35.5597L1631.05 35.5597C1629.72 35.5597 1628.39 36.8772 1628.39 38.1947V76.073L1619.07 110.328C1618.74 111.646 1619.73 112.963 1621.07 112.963Z" fill="#FE79A7"/>
</svg>
