<svg width="288" height="436" viewBox="0 0 288 436" fill="none" xmlns="http://www.w3.org/2000/svg">
<path d="M110.055 0H176.922C181.968 0 185.753 5.04655 184.492 10.0931L149.166 141.303V286.391C149.166 291.438 144.119 296.484 139.073 296.484H10.3861C5.33961 296.484 0.292969 291.438 0.292969 286.391V152.658C0.292969 146.35 2.81624 138.78 6.60114 133.733L93.654 8.83149C97.4389 3.78494 103.747 0 110.055 0Z" fill="black"/>
<path d="M109.373 436L177.501 436C183.809 436 190.118 432.215 193.903 427.169L280.956 302.267C284.74 297.22 287.264 289.65 287.264 283.342L287.264 149.609C287.264 144.562 282.217 139.516 277.171 139.516L147.222 139.516C142.176 139.516 137.129 144.562 137.129 149.609L137.129 294.697L101.803 425.907C100.542 430.953 104.327 436 109.373 436Z" fill="black"/>
</svg>
