<svg width="4" height="6" viewBox="0 0 4 6" fill="none" xmlns="http://www.w3.org/2000/svg">
<path d="M1.5077 0H2.4262C2.49552 0 2.5475 0.0693959 2.53017 0.138792L2.04494 1.94308V3.93821C2.04494 4.0076 1.97562 4.077 1.9063 4.077H0.138639C0.0693194 4.077 0 4.0076 0 3.93821V2.09922C0 2.01248 0.0346565 1.90838 0.0866464 1.83899L1.28241 0.121443C1.3344 0.0520472 1.42105 0 1.5077 0Z" fill="#FE79A7"/>
<path d="M1.55647 5.95H2.49229C2.57894 5.95 2.66558 5.89795 2.71757 5.82856L3.91335 4.11101C3.96534 4.04162 4 3.93752 4 3.85078V2.01179C4 1.9424 3.93068 1.873 3.86136 1.873L2.07637 1.873C2.00705 1.873 1.93773 1.9424 1.93773 2.01179V4.00692L1.45249 5.81121C1.43516 5.8806 1.48715 5.95 1.55647 5.95Z" fill="#FE79A7"/>
</svg>
